<svg width="60" height="49" viewBox="0 0 60 49" fill="none" xmlns="http://www.w3.org/2000/svg">
<path fill-rule="evenodd" clip-rule="evenodd" d="M27.2081 20.6802C27.0773 22.8933 25.8027 24.7941 23.9826 26.2929C25.4646 25.9223 29.9902 27.4346 29.9842 30.3918C29.9842 28.5762 29.9917 27.4121 29.9992 26.393C30.0083 27.4121 30.0143 28.5762 30.0143 30.3918C30.0083 27.4346 34.5339 25.9208 36.0159 26.2929C34.1957 24.7926 32.9212 22.8918 32.7904 20.6802H30.0293H29.9662H27.2051H27.2081ZM59.9759 18.8885C59.9759 20.4994 59.6002 21.9101 58.8577 23.1309C57.0706 26.0643 54.2343 27.4136 50.9336 27.8545C50.4827 27.9202 50.0318 27.9785 49.5809 28.0293C49.13 28.0786 48.6625 28.104 48.1786 28.104C46.0247 28.104 44.0873 27.7394 42.3663 27.0162C40.6468 26.2944 39.276 25.2484 38.2585 23.8781C37.2394 22.5078 36.7299 20.8476 36.7299 18.8885C36.7299 14.8449 40.0095 11.3542 43.7521 10.2708C46.8108 9.38615 50.0934 9.88377 53.1341 8.86464C53.6827 8.68084 54.0705 8.46117 54.3095 8.20564C54.5364 7.96207 54.553 7.75137 54.3576 7.56906C54.1982 7.42262 53.9953 7.37032 53.7443 7.42112C53.4918 7.47044 53.1792 7.47642 52.8049 7.42412C52.4307 7.37331 51.9903 7.11179 51.4883 6.64855C50.9622 6.1614 50.6947 5.47252 50.6811 4.57444C50.6676 3.67635 51.0479 2.80517 51.834 1.96685C52.596 1.15394 53.5489 0.672771 54.6777 0.527822C55.808 0.381378 56.9097 0.813239 57.9979 1.81892C58.7314 2.49734 59.1899 3.26243 59.3627 4.11419C59.5356 4.96595 59.4604 5.83714 59.1373 6.73075C58.8141 7.62286 58.2835 8.45819 57.5545 9.23673C56.9173 9.91814 56.0891 10.5338 55.0625 11.0807L54.9197 11.1554C56.313 11.8533 57.4568 12.7708 58.3557 13.9139C59.4333 15.2842 59.9759 16.9444 59.9759 18.887V18.8885ZM57.1006 27.6184C57.8131 28.0637 58.4128 28.5673 58.8983 29.1321C59.6332 29.9869 60 31.0329 60 32.2612C60 33.2908 59.749 34.162 59.2485 34.8853C58.748 35.607 58.0881 36.2301 57.269 36.7442C56.9684 36.9265 56.809 37.0595 56.7925 37.1506C56.782 37.2059 56.8376 37.2717 56.9578 37.3479C53.9638 38.5897 53.6767 38.5672 51.0058 38.6868C50.639 38.7032 50.2798 38.7122 49.9281 38.7122C49.5614 38.7122 49.0428 38.7122 48.383 38.7122C47.7231 38.7122 47.0723 38.7122 46.429 38.7122C45.7857 38.7122 45.2927 38.7122 44.9425 38.7122C43.3057 38.7122 42.1453 38.9363 41.469 39.3936C39.4414 40.7654 38.269 46.1001 40.5341 48.5C38.2464 47.7857 36.4338 46.7068 35.1066 45.2708C33.7794 43.8347 33.1196 42.0161 33.1196 39.8075C33.1196 38.2968 33.345 36.9937 33.805 35.8969C34.2649 34.8016 34.9157 33.896 35.7499 33.1907C36.5856 32.4854 37.5701 31.9698 38.7139 31.6381C39.8577 31.3063 41.1188 31.1405 42.488 31.1405C42.8382 31.1405 43.3733 31.1405 44.0993 31.1494C44.8253 31.1584 45.6023 31.1659 46.429 31.1659C47.2557 31.1659 48.0237 31.1659 48.7257 31.1748C49.4276 31.1838 49.9371 31.1913 50.2543 31.1913C53.9848 31.1913 55.8155 30.0347 57.0991 27.6184H57.1006ZM51.1831 18.8885C51.1831 17.9083 51.0914 17.0042 50.9081 16.1823C50.7247 15.3605 50.4151 14.7134 49.9807 14.2307C49.5463 13.7496 48.9451 13.509 48.1771 13.509C47.409 13.509 46.7988 13.7496 46.3569 14.2307C45.915 14.7119 45.6054 15.3605 45.4295 16.1823C45.2536 17.0042 45.171 17.9098 45.171 18.8885C45.171 19.8853 45.2551 20.7893 45.4295 21.6037C45.6054 22.4166 45.9135 23.0652 46.3569 23.5553C46.7988 24.0454 47.409 24.2935 48.1771 24.2935C48.9451 24.2935 49.5463 24.0439 49.9807 23.5553C50.4151 23.0652 50.7232 22.4181 50.9081 21.6037C51.0914 20.7908 51.1831 19.8853 51.1831 18.8885ZM0.0240447 18.8885C0.0240447 20.4994 0.399806 21.9101 1.14231 23.1309C2.92943 26.0643 5.76567 27.4136 9.06635 27.8545C9.51726 27.9202 9.96818 27.9785 10.4191 28.0293C10.87 28.0786 11.3375 28.104 11.8214 28.104C13.9753 28.104 15.9127 27.7394 17.6337 27.0162C19.3532 26.2944 20.724 25.2484 21.7415 23.8781C22.7606 22.5078 23.2701 20.8476 23.2701 18.8885C23.2701 14.8449 19.9905 11.3542 16.2479 10.2708C13.1892 9.38615 9.90656 9.88377 6.8659 8.86464C6.31729 8.68084 5.9295 8.46117 5.69052 8.20564C5.46356 7.96207 5.44703 7.75137 5.64242 7.56906C5.80174 7.42262 6.00466 7.37032 6.25567 7.42112C6.50818 7.47044 6.82081 7.47642 7.19507 7.42412C7.56933 7.37331 8.00971 7.11179 8.51173 6.64855C9.03779 6.1614 9.30534 5.47252 9.31887 4.57444C9.3324 3.67635 8.95212 2.80517 8.16603 1.96685C7.40399 1.15394 6.45106 0.672771 5.32227 0.527822C4.19198 0.381378 3.09025 0.813239 2.00205 1.81892C1.26856 2.49734 0.810139 3.26243 0.637289 4.11419C0.464439 4.96595 0.539591 5.83714 0.862746 6.73075C1.1859 7.62286 1.71647 8.45819 2.44545 9.23673C3.08274 9.91814 3.91092 10.5338 4.93749 11.0807L5.08029 11.1554C3.68696 11.8533 2.54315 12.7708 1.64433 13.9139C0.566648 15.2842 0.0240447 16.9444 0.0240447 18.887V18.8885ZM2.89937 27.6184C2.18693 28.0637 1.58721 28.5673 1.10172 29.1321C0.366736 29.9869 0 31.0329 0 32.2612C0 33.2908 0.251008 34.162 0.751522 34.8853C1.25204 35.607 1.91187 36.2301 2.73103 36.7442C3.03164 36.9265 3.19096 37.0595 3.20749 37.1506C3.21801 37.2059 3.1624 37.2717 3.04216 37.3479C6.03622 38.5897 6.3233 38.5672 8.99421 38.6868C9.36095 38.7032 9.72018 38.7122 10.0719 38.7122C10.4386 38.7122 10.9572 38.7122 11.617 38.7122C12.2769 38.7122 12.9277 38.7122 13.571 38.7122C14.2143 38.7122 14.7073 38.7122 15.0575 38.7122C16.6943 38.7122 17.8547 38.9363 18.531 39.3936C20.5586 40.7654 21.731 46.1001 19.4659 48.5C21.7535 47.7857 23.5662 46.7068 24.8934 45.2708C26.2206 43.8347 26.8804 42.0161 26.8804 39.8075C26.8804 38.2968 26.655 36.9937 26.195 35.8969C25.7351 34.8016 25.0843 33.896 24.2501 33.1907C23.4144 32.4854 22.4299 31.9698 21.2861 31.6381C20.1423 31.3063 18.8812 31.1405 17.512 31.1405C17.1617 31.1405 16.6267 31.1405 15.9007 31.1494C15.1747 31.1584 14.3977 31.1659 13.571 31.1659C12.7443 31.1659 11.9762 31.1659 11.2743 31.1748C10.5724 31.1838 10.0629 31.1913 9.74573 31.1913C6.01518 31.1913 4.18447 30.0347 2.90087 27.6184H2.89937ZM8.81685 18.8885C8.81685 17.9083 8.90854 17.0042 9.09191 16.1823C9.27528 15.3605 9.5849 14.7134 10.0193 14.2307C10.4537 13.7496 11.0549 13.509 11.8229 13.509C12.591 13.509 13.2012 13.7496 13.6431 14.2307C14.085 14.7119 14.3946 15.3605 14.5705 16.1823C14.7464 17.0042 14.829 17.9098 14.829 18.8885C14.829 19.8853 14.7449 20.7893 14.5705 21.6037C14.3946 22.4166 14.0865 23.0652 13.6431 23.5553C13.2012 24.0454 12.591 24.2935 11.8229 24.2935C11.0549 24.2935 10.4537 24.0439 10.0193 23.5553C9.5849 23.0652 9.27678 22.4181 9.09191 21.6037C8.90854 20.7908 8.81685 19.8853 8.81685 18.8885Z" fill="#121212"/>
</svg>
